<svg version="1.1" id="Layer_1" xmlns="http://www.w3.org/2000/svg" xmlns:xlink="http://www.w3.org/1999/xlink" x="0px" y="0px" viewBox="0 0 500 500" style="width: 146px;" xml:space="preserve" data-imageid="money-jar-71" imageName="Money Jar" class="illustrations_image">
<style type="text/css">
	.st0_money-jar-71{fill:#D1D3D4;}
	.st1_money-jar-71{fill:#FFFFFF;}
	.st2_money-jar-71{fill:#231F20;}
	.st3_money-jar-71{fill:#68E1FD;}
</style>
<g id="Shadow_money-jar-71">
	<ellipse class="st0_money-jar-71" cx="250" cy="393" rx="109.3" ry="19"/>
</g>
<g id="Bottle_and_Coins_money-jar-71">
	<path class="st1_money-jar-71" d="M328.2,222.6c-9.5-8.4-6.2-36.3-6.2-36.3H218.7c0,0,3.3,27.9-6.2,36.3s-28.1,12.6-28.1,37.3v129.4h171.8V259.9&#10;&#9;&#9;C356.2,235.2,337.6,231,328.2,222.6z"/>
	<path class="st2_money-jar-71" d="M356.2,390H184.4c-0.4,0-0.7-0.3-0.7-0.7l0,0V259.9c0-19.2,11.4-26.5,20.5-32.3c2.7-1.6,5.3-3.5,7.8-5.5&#10;&#9;&#9;c9.1-8.1,6-35.4,5.9-35.7c0-0.2,0-0.4,0.2-0.6c0.1-0.1,0.3-0.2,0.5-0.2H322c0.2,0,0.4,0.1,0.5,0.2c0.1,0.1,0.2,0.4,0.2,0.6&#10;&#9;&#9;c0,0.3-3.1,27.6,5.9,35.7l0,0c2.5,2,5.1,3.9,7.8,5.5c9.1,5.8,20.5,13.1,20.5,32.3v129.4C356.9,389.7,356.6,390,356.2,390&#10;&#9;&#9;C356.2,390,356.2,390,356.2,390z M185.1,388.6h170.4V259.9c0-18.5-10.6-25.2-19.9-31.1c-2.8-1.7-5.5-3.6-8-5.7l0,0&#10;&#9;&#9;c-8.8-7.9-7-31.4-6.5-36.1H219.5c0.5,4.7,2.4,28.2-6.5,36.1c-2.5,2.1-5.2,4-8,5.7c-9.3,5.9-19.9,12.7-19.9,31.1L185.1,388.6z"/>
	<path class="st3_money-jar-71 targetColor" d="M252.1,339.6c-5,8.3,0.6,26.7,0.6,26.7l7.4,5.4c11.1,6.6,25.4,3.1,32.1-8c6.6-11.1,3.1-25.4-8-32.1l0,0l-8.2-4&#10;&#9;&#9;C275.9,327.7,257.1,331.4,252.1,339.6z" style="fill: rgb(104, 225, 253);"/>
	<path class="st2_money-jar-71" d="M272.1,375.7c-4.4,0-8.6-1.2-12.4-3.4l-7.4-5.4c-0.1-0.1-0.2-0.2-0.2-0.4c-0.2-0.8-5.6-18.8-0.5-27.3l0,0&#10;&#9;&#9;c5.1-8.5,23.5-12.2,24.3-12.3c0.1,0,0.3,0,0.4,0l8.2,4c11.4,6.8,15.1,21.6,8.3,33C288.4,371.3,280.6,375.8,272.1,375.7L272.1,375.7&#10;&#9;&#9;z M253.3,365.9l7.2,5.2c10.7,6.4,24.7,2.9,31.1-7.8s2.9-24.7-7.8-31.1l-7.9-3.9c-2.1,0.5-18.7,4.2-23.2,11.6&#10;&#9;&#9;S252.7,363.8,253.3,365.9L253.3,365.9z"/>
	<circle class="st3_money-jar-71 targetColor" cx="267" cy="348.6" r="23.4" style="fill: rgb(104, 225, 253);"/>
	<path class="st2_money-jar-71" d="M267,372.7c-13.3,0-24.1-10.8-24.1-24.1c0-13.3,10.8-24.1,24.1-24.1s24.1,10.8,24.1,24.1&#10;&#9;&#9;c0,4.4-1.2,8.6-3.4,12.4C283.3,368.3,275.5,372.7,267,372.7z M267.1,325.9c-12.5,0-22.7,10.1-22.7,22.6c0,12.5,10.1,22.7,22.6,22.7&#10;&#9;&#9;c12.5,0,22.7-10.1,22.7-22.6c0-8-4.2-15.4-11-19.5C275.2,327.1,271.2,326,267.1,325.9L267.1,325.9z"/>
	<path class="st1_money-jar-71" d="M253.9,337.9l2.9,1.8c0.1,0.1,0.3,0.1,0.4,0c0,0,0,0,0,0c1.1-1.3,2.6-2.2,4.1-2.8c1.7-0.6,3.5-0.6,5.2,0.1&#10;&#9;&#9;c0.5,0.2,0.9,0.4,1.4,0.6l-2.7,4.5c-0.7-0.4-1.5-0.6-2.3-0.5c-0.6,0.2-1.2,0.4-1.8,0.6v0.1l5.6,3.4l0.4-0.4c1-1.1,2.1-2,3.3-2.9&#10;&#9;&#9;c1.8-1.3,4.1-1.5,6.1-0.5c1.9,0.8,3.4,2.2,4.2,4.1c0.7,1.5,0.8,3.2,0.5,4.8c-0.2,1-0.5,2-0.8,3l2.2,1.3l-2.5,4.1l-2.2-1.3&#10;&#9;&#9;c-0.7,0.7-1.4,1.4-2.1,2c-1.4,1.2-3.2,1.9-5,2c-1.6,0-3.2-0.4-4.5-1.2l2.7-4.4c1.6,0.9,3.6,0.6,4.9-0.7l-6-3.6&#10;&#9;&#9;c-0.8,0.7-1.5,1.4-2.2,2.1c-0.9,0.8-2,1.5-3.1,1.8c-1.2,0.3-2.5,0.2-3.7-0.2c-1.4-0.5-2.7-1.4-3.7-2.6c-1.4-1.7-2-4-1.5-6.2&#10;&#9;&#9;c0.2-0.9,0.5-1.7,0.8-2.6c0-0.1,0.1-0.2,0.1-0.3l-3-1.8L253.9,337.9z M276.4,351.5c0.3-0.7,0.4-1.6,0.3-2.4&#10;&#9;&#9;c-0.3-1.4-1.5-2.4-2.9-2.3c-1,0.3-1.8,0.8-2.5,1.5L276.4,351.5z M258.3,346.2c-0.1,0.7-0.1,1.4-0.1,2.1c0.1,1.4,1.4,2.5,2.8,2.4&#10;&#9;&#9;c0.1,0,0.3,0,0.4-0.1c0.7-0.3,1.4-0.8,2-1.4L258.3,346.2z"/>
	<path class="st3_money-jar-71 targetColor" d="M266.8,210.9c-6.3,7.4-3.8,26.4-3.8,26.4l6.4,6.5c9.8,8.4,24.6,7.2,32.9-2.6c8.4-9.8,7.2-24.6-2.6-32.9l0,0&#10;&#9;&#9;l-7.4-5.3C292.3,203,273,203.5,266.8,210.9z" style="fill: rgb(104, 225, 253);"/>
	<path class="st2_money-jar-71" d="M284.5,250.1c-5.7,0-11.3-2-15.6-5.8l-6.4-6.6c-0.1-0.1-0.2-0.2-0.2-0.4c-0.1-0.8-2.4-19.5,4-27&#10;&#9;&#9;s25.2-8.1,26-8.1c0.2,0,0.3,0.1,0.4,0.1l7.4,5.3c10.1,8.6,11.4,23.8,2.8,33.9C298.3,247,291.6,250.1,284.5,250.1L284.5,250.1z&#10;&#9;&#9; M263.6,237l6.2,6.3c9.6,8.1,23.9,6.9,32-2.7c8-9.5,6.9-23.7-2.5-31.8l-7.2-5.1c-2.2,0.1-19.1,1-24.8,7.6S263.4,234.8,263.6,237z"/>
	<circle class="st3_money-jar-71 targetColor" cx="280" cy="222.2" r="23.4" style="fill: rgb(104, 225, 253);"/>
	<path class="st2_money-jar-71" d="M280,246.2c-13.3,0-24.1-10.8-24.1-24.1c0-13.3,10.8-24.1,24.1-24.1c5.7,0,11.3,2.1,15.7,5.8l0,0&#10;&#9;&#9;c10.1,8.6,11.3,23.8,2.7,33.9C293.7,243.2,287,246.3,280,246.2z M280,199.5c-12.5,0-22.7,10.1-22.7,22.6&#10;&#9;&#9;c0,12.5,10.1,22.7,22.6,22.7c12.5,0,22.7-10.1,22.7-22.6c0-6.6-2.9-12.9-7.9-17.2l0,0C290.6,201.5,285.4,199.5,280,199.5z"/>
	<path class="st1_money-jar-71" d="M268.9,209.5c0.9,0.7,1.7,1.5,2.6,2.2c0.1,0.1,0.3,0.1,0.4,0c0,0,0,0,0,0c1.3-1.1,2.9-1.8,4.6-2.1&#10;&#9;&#9;c1.8-0.3,3.6,0.1,5.1,1c0.4,0.2,0.8,0.5,1.2,0.8l-3.4,4c-0.6-0.5-1.4-0.8-2.2-0.8c-0.6,0.1-1.2,0.1-1.9,0.3v0.1l5,4.3&#10;&#9;&#9;c0.1-0.1,0.3-0.2,0.5-0.4c1.1-0.9,2.4-1.7,3.7-2.3c2-1,4.3-0.8,6.1,0.5c3.2,2,4.6,6.1,3.1,9.6c-0.4,1-0.9,1.9-1.3,2.9l1.9,1.7&#10;&#9;&#9;l-3.1,3.7l-2-1.7c-0.8,0.6-1.6,1.1-2.4,1.6c-1.6,1-3.4,1.4-5.3,1.2c-1.6-0.2-3-0.9-4.2-2l3.4-3.9c1.5,1.2,3.5,1.2,5,0.1l-5.4-4.6&#10;&#9;&#9;c-0.9,0.6-1.7,1.1-2.6,1.7c-1,0.7-2.2,1.1-3.4,1.3c-1.2,0.1-2.5-0.2-3.6-0.9c-1.3-0.7-2.5-1.8-3.2-3.2c-1.1-2-1.3-4.3-0.5-6.4&#10;&#9;&#9;c0.4-0.8,0.7-1.6,1.2-2.4c0-0.1,0.1-0.2,0.2-0.3l-2.7-2.3L268.9,209.5z M288.9,226.5c0.4-0.7,0.7-1.5,0.7-2.3&#10;&#9;&#9;c0-1.4-1.1-2.6-2.5-2.7c-1,0.1-2,0.5-2.8,1.1L288.9,226.5z M271.9,218.4c-0.2,0.7-0.4,1.3-0.5,2c-0.1,1.4,0.9,2.7,2.4,2.8&#10;&#9;&#9;c0.1,0,0.3,0,0.4,0c0.8-0.2,1.5-0.5,2.1-1L271.9,218.4z"/>
	<path class="st1_money-jar-71" d="M206.2,177.9v18.9c0,7.8,28.7,14.2,64.1,14.2s64.1-6.4,64.1-14.2v-18.9H206.2z"/>
	<path class="st2_money-jar-71" d="M270.3,211.8c-31.9,0-64.8-5.6-64.8-14.9v-18.9c0-0.4,0.3-0.7,0.7-0.7h128.2c0.4,0,0.7,0.3,0.7,0.7&#10;&#9;&#9;c0,0,0,0,0,0v18.9C335.2,206.2,302.2,211.8,270.3,211.8z M206.9,178.6v18.2c0,6.5,25.5,13.5,63.4,13.5s63.4-7,63.4-13.5v-18.2&#10;&#9;&#9;H206.9z"/>
	<ellipse class="st1_money-jar-71" cx="270.3" cy="177.9" rx="64.1" ry="14.2"/>
	<path class="st2_money-jar-71" d="M270.3,192.8c-31.9,0-64.8-5.6-64.8-14.9s33-14.9,64.8-14.9s64.8,5.6,64.8,14.9S302.2,192.8,270.3,192.8z&#10;&#9;&#9; M270.3,164.4c-37.9,0-63.4,7-63.4,13.5s25.5,13.5,63.4,13.5s63.4-7,63.4-13.5S308.3,164.4,270.3,164.4z"/>
	<ellipse class="st1_money-jar-71" cx="270.3" cy="389.3" rx="85.9" ry="19"/>
	<path class="st2_money-jar-71" d="M270.3,409c-48.6,0-86.6-8.6-86.6-19.7s38-19.7,86.6-19.7s86.6,8.6,86.6,19.7S318.9,409,270.3,409z M270.3,371&#10;&#9;&#9;c-41.1,0-85.2,7.4-85.2,18.3s44,18.3,85.2,18.3s85.2-7.4,85.2-18.3S311.5,371,270.3,371z"/>
	<path class="st0_money-jar-71" d="M194.8,373.2c-0.4,0-0.7-0.3-0.7-0.7l0,0V256.2c0-7.6,10-15.1,18.9-21.6c5.3-3.9,10.3-7.6,11.1-10.1&#10;&#9;&#9;c1.3-4.4,2.1-8.9,2.3-13.5c0-0.4,0.3-0.7,0.6-0.7c0,0,0.1,0,0.1,0c0.4,0,0.7,0.3,0.7,0.7c-0.3,4.7-1.1,9.3-2.4,13.8&#10;&#9;&#9;c-0.9,2.9-5.9,6.6-11.6,10.9c-8.2,6-18.3,13.5-18.3,20.5v116.3C195.4,372.9,195.1,373.2,194.8,373.2z"/>
	<path class="st0_money-jar-71" d="M345.9,373.2c-0.4,0-0.7-0.3-0.7-0.7v0V256.2c0-6.9-10.2-14.4-18.3-20.5c-5.8-4.2-10.7-7.9-11.6-10.9&#10;&#9;&#9;c-1.3-4.5-2.1-9.1-2.4-13.8c0-0.4,0.3-0.7,0.7-0.7l0,0c0.4,0,0.7,0.3,0.7,0.7c0.3,4.6,1.1,9.1,2.3,13.5c0.8,2.5,5.8,6.2,11.1,10.1&#10;&#9;&#9;c8.9,6.5,18.9,14,18.9,21.6v116.2C346.6,372.9,346.3,373.2,345.9,373.2z"/>
	<path class="st3_money-jar-71 targetColor" d="M206.5,369.3v12c0,4.5,11.1,8.2,24.8,8.2s24.8-3.7,24.8-8.2v-12H206.5z" style="fill: rgb(104, 225, 253);"/>
	<path class="st2_money-jar-71" d="M231.4,390.3c-12.6,0-25.5-3.3-25.5-8.9v-12c0-0.4,0.3-0.7,0.7-0.7c0,0,0,0,0,0h49.7c0.4,0,0.7,0.3,0.7,0.7v0&#10;&#9;&#9;v12C256.9,386.9,243.9,390.3,231.4,390.3z M207.2,370v11.3c0,3.6,9.7,7.5,24.1,7.5s24.1-3.9,24.1-7.5V370H207.2z"/>
	<ellipse class="st2_money-jar-71" cx="231.4" cy="369.3" rx="24.8" ry="8.2"/>
	<path class="st2_money-jar-71" d="M231.4,378.2c-12.6,0-25.5-3.4-25.5-8.9s13-9,25.5-9s25.5,3.4,25.5,9S243.9,378.2,231.4,378.2z M231.4,361.8&#10;&#9;&#9;c-14.4,0-24.1,3.9-24.1,7.5s9.7,7.5,24.1,7.5s24.1-3.9,24.1-7.5S245.8,361.8,231.4,361.8z"/>
	<path class="st3_money-jar-71 targetColor" d="M212.4,352.8v12c0,4.5,11.1,8.2,24.8,8.2s24.8-3.7,24.8-8.2v-12H212.4z" style="fill: rgb(104, 225, 253);"/>
	<path class="st2_money-jar-71" d="M237.2,373.8c-12.6,0-25.5-3.3-25.5-8.9v-12c0-0.4,0.3-0.7,0.7-0.7c0,0,0,0,0,0h49.7c0.4,0,0.7,0.3,0.7,0.7v0&#10;&#9;&#9;v12C262.8,370.5,249.8,373.8,237.2,373.8z M213.1,353.5v11.3c0,3.6,9.7,7.5,24.1,7.5s24.1-3.9,24.1-7.5v-11.3L213.1,353.5z"/>
	<ellipse class="st2_money-jar-71" cx="237.2" cy="352.8" rx="24.8" ry="8.2"/>
	<path class="st2_money-jar-71" d="M237.2,361.8c-12.6,0-25.5-3.3-25.5-8.9s13-8.9,25.5-8.9s25.5,3.3,25.5,8.9S249.8,361.8,237.2,361.8z&#10;&#9;&#9; M237.2,345.3c-14.4,0-24.1,3.9-24.1,7.5s9.7,7.5,24.1,7.5s24.1-3.9,24.1-7.5S251.6,345.3,237.2,345.3z"/>
	<path class="st3_money-jar-71 targetColor" d="M207.3,334.5v12c0,4.5,11.1,8.2,24.8,8.2s24.9-3.7,24.9-8.2v-12L207.3,334.5z" style="fill: rgb(104, 225, 253);"/>
	<path class="st2_money-jar-71" d="M232.1,355.4c-12.6,0-25.5-3.3-25.5-8.9v-12c0-0.4,0.3-0.7,0.7-0.7c0,0,0,0,0,0H257c0.4,0,0.7,0.3,0.7,0.7v0&#10;&#9;&#9;v12C257.7,352.1,244.7,355.4,232.1,355.4z M208,335.1v11.3c0,3.6,9.7,7.5,24.1,7.5s24.1-3.9,24.1-7.5v-11.3H208z"/>
	<ellipse class="st2_money-jar-71" cx="232.1" cy="334.5" rx="24.8" ry="8.2"/>
	<path class="st2_money-jar-71" d="M232.1,343.4c-12.6,0-25.5-3.4-25.5-8.9s13-9,25.5-9s25.5,3.4,25.5,9S244.7,343.4,232.1,343.4z M232.1,326.9&#10;&#9;&#9;c-14.4,0-24.1,3.9-24.1,7.5s9.7,7.5,24.1,7.5s24.1-3.9,24.1-7.5S246.6,326.9,232.1,326.9L232.1,326.9z"/>
	<path class="st3_money-jar-71 targetColor" d="M271.9,367.2v12c0,4.5,11.1,8.2,24.8,8.2s24.8-3.7,24.8-8.2v-12H271.9z" style="fill: rgb(104, 225, 253);"/>
	<path class="st2_money-jar-71" d="M296.8,388.2c-12.5,0-25.5-3.3-25.5-8.9v-12c0-0.4,0.3-0.7,0.7-0.7h0h49.7c0.4,0,0.7,0.3,0.7,0.7v0v12&#10;&#9;&#9;C322.3,384.8,309.3,388.2,296.8,388.2z M272.6,367.9v11.3c0,3.6,9.7,7.5,24.1,7.5s24.1-3.9,24.1-7.5v-11.3H272.6z"/>
	<ellipse class="st2_money-jar-71" cx="296.8" cy="367.2" rx="24.8" ry="8.2"/>
	<path class="st2_money-jar-71" d="M296.8,376.2c-12.5,0-25.5-3.4-25.5-9s13-8.9,25.5-8.9s25.5,3.4,25.5,8.9S309.3,376.2,296.8,376.2z&#10;&#9;&#9; M296.8,359.7c-14.4,0-24.1,3.9-24.1,7.5s9.7,7.5,24.1,7.5s24.1-3.9,24.1-7.5S311.2,359.7,296.8,359.7z"/>
	<path class="st3_money-jar-71 targetColor" d="M268.7,353v12c0,4.6,11.1,8.2,24.8,8.2s24.8-3.7,24.8-8.2v-12H268.7z" style="fill: rgb(104, 225, 253);"/>
	<path class="st2_money-jar-71" d="M293.5,373.9c-12.5,0-25.5-3.4-25.5-8.9v-12c0-0.4,0.3-0.7,0.7-0.7h0h49.7c0.4,0,0.7,0.3,0.7,0.7v0v12&#10;&#9;&#9;C319.1,370.6,306.1,373.9,293.5,373.9z M269.4,353.7V365c0,3.6,9.7,7.5,24.1,7.5s24.1-3.9,24.1-7.5v-11.3H269.4z"/>
	<ellipse class="st2_money-jar-71" cx="293.5" cy="353" rx="24.8" ry="8.2"/>
	<path class="st2_money-jar-71" d="M293.5,361.9c-12.5,0-25.5-3.3-25.5-8.9s13-9,25.5-9s25.5,3.3,25.5,8.9S306.1,361.9,293.5,361.9z M293.5,345.4&#10;&#9;&#9;c-14.4,0-24.1,3.9-24.1,7.5s9.7,7.5,24.1,7.5s24.1-3.9,24.1-7.5S308,345.4,293.5,345.4L293.5,345.4z"/>
	<path class="st3_money-jar-71 targetColor" d="M272.7,335.6v12c0,4.5,11.1,8.2,24.8,8.2s24.8-3.7,24.8-8.2v-12H272.7z" style="fill: rgb(104, 225, 253);"/>
	<path class="st2_money-jar-71" d="M297.5,356.6c-12.5,0-25.5-3.3-25.5-8.9v-12c0-0.4,0.3-0.7,0.7-0.7h0h49.7c0.4,0,0.7,0.3,0.7,0.7v0v12&#10;&#9;&#9;C323.1,353.2,310.1,356.6,297.5,356.6z M273.4,336.3v11.3c0,3.6,9.7,7.5,24.1,7.5s24.1-3.9,24.1-7.5v-11.3H273.4z"/>
	<ellipse class="st2_money-jar-71" cx="297.5" cy="335.6" rx="24.8" ry="8.2"/>
	<path class="st2_money-jar-71" d="M297.5,344.5c-12.5,0-25.5-3.4-25.5-9s13-8.9,25.5-8.9s25.5,3.4,25.5,8.9S310.1,344.5,297.5,344.5z&#10;&#9;&#9; M297.5,328.1c-14.4,0-24.1,3.9-24.1,7.5s9.7,7.5,24.1,7.5s24.1-3.9,24.1-7.5S312,328,297.5,328.1L297.5,328.1z"/>
	<path class="st3_money-jar-71 targetColor" d="M268.7,318.2v12c0,4.5,11.1,8.2,24.8,8.2s24.8-3.7,24.8-8.2v-12H268.7z" style="fill: rgb(104, 225, 253);"/>
	<path class="st2_money-jar-71" d="M293.5,339.1c-12.6,0-25.5-3.3-25.5-8.9v-12c0-0.4,0.3-0.7,0.7-0.7h0h49.7c0.4,0,0.7,0.3,0.7,0.7v0v12&#10;&#9;&#9;C319.1,335.8,306.1,339.1,293.5,339.1z M269.4,318.9v11.3c0,3.6,9.7,7.5,24.1,7.5s24.1-3.9,24.1-7.5v-11.3L269.4,318.9z"/>
	<ellipse class="st2_money-jar-71" cx="293.5" cy="318.2" rx="24.8" ry="8.2"/>
	<path class="st2_money-jar-71" d="M293.5,327.1c-12.6,0-25.5-3.4-25.5-9s13-8.9,25.5-8.9s25.5,3.4,25.5,8.9S306.1,327.1,293.5,327.1z&#10;&#9;&#9; M293.5,310.6c-14.4,0-24.1,3.9-24.1,7.5s9.7,7.5,24.1,7.5s24.1-3.9,24.1-7.5S308,310.6,293.5,310.6z"/>
	<path class="st3_money-jar-71 targetColor" d="M276.7,303.9v12c0,4.5,11.1,8.2,24.9,8.2s24.8-3.7,24.8-8.2v-12H276.7z" style="fill: rgb(104, 225, 253);"/>
	<path class="st2_money-jar-71" d="M301.5,324.9c-12.6,0-25.5-3.4-25.5-8.9v-12c0-0.4,0.3-0.7,0.7-0.7h0h49.7c0.4,0,0.7,0.3,0.7,0.7v0v12&#10;&#9;&#9;C327.1,321.5,314.1,324.9,301.5,324.9z M277.4,304.6v11.3c0,3.6,9.7,7.5,24.1,7.5s24.1-3.9,24.1-7.5v-11.3L277.4,304.6z"/>
	<ellipse class="st2_money-jar-71" cx="301.5" cy="303.9" rx="24.8" ry="8.2"/>
	<path class="st2_money-jar-71" d="M301.5,312.9c-12.6,0-25.5-3.3-25.5-8.9s13-8.9,25.5-8.9s25.5,3.3,25.5,8.9S314.1,312.9,301.5,312.9z&#10;&#9;&#9; M301.5,296.4c-14.5,0-24.1,3.9-24.1,7.5s9.7,7.5,24.1,7.5s24.1-3.9,24.1-7.5S316,296.4,301.5,296.4z"/>
	<path class="st3_money-jar-71 targetColor" d="M271.2,289.6v12c0,4.5,11.1,8.2,24.9,8.2s24.8-3.7,24.8-8.2v-12H271.2z" style="fill: rgb(104, 225, 253);"/>
	<path class="st2_money-jar-71" d="M296.1,310.6c-12.5,0-25.5-3.3-25.5-8.9v-12c0-0.4,0.3-0.7,0.7-0.7h49.7c0.4,0,0.7,0.3,0.7,0.7v12&#10;&#9;&#9;C321.6,307.3,308.6,310.6,296.1,310.6z M271.9,290.4v11.3c0,3.6,9.7,7.5,24.1,7.5s24.1-3.9,24.1-7.5v-11.3H271.9z"/>
	<ellipse class="st3_money-jar-71 targetColor" cx="296.1" cy="289.6" rx="24.8" ry="8.2" style="fill: rgb(104, 225, 253);"/>
	<path class="st2_money-jar-71" d="M296.1,298.6c-12.5,0-25.5-3.4-25.5-9s13-8.9,25.5-8.9s25.5,3.4,25.5,8.9S308.6,298.6,296.1,298.6z&#10;&#9;&#9; M296.1,282.1c-14.4,0-24.1,3.9-24.1,7.5s9.7,7.5,24.1,7.5s24.1-3.9,24.1-7.5S310.5,282.1,296.1,282.1L296.1,282.1z"/>
	<path class="st3_money-jar-71 targetColor" d="M243.9,382.3l0.5,9c0.1,6,11.6,10.7,25.6,10.4c14-0.3,25.3-5.4,25.2-11.4l-0.5-9L243.9,382.3z" style="fill: rgb(104, 225, 253);"/>
	<path class="st2_money-jar-71" d="M268.9,402.4c-5.8,0.1-11.7-0.9-17.1-2.9c-5.1-2.1-8-5-8-8.2l-0.5-8.9c0-0.2,0.1-0.4,0.2-0.5&#10;&#9;&#9;c0.1-0.1,0.3-0.2,0.5-0.2l50.8-1l0,0c0.4,0,0.7,0.3,0.7,0.6l0.5,9c0.1,6.5-11.2,11.8-25.9,12.1L268.9,402.4z M244.6,383l0.5,8.2&#10;&#9;&#9;c0.1,2.6,2.6,5.1,7.1,7c5.7,2.1,11.7,3,17.8,2.8c13.4-0.2,24.6-5.1,24.5-10.6l-0.5-8.3L244.6,383z"/>
	
		<ellipse transform="matrix(0.9998 -1.867394e-02 1.867394e-02 0.9998 -7.084 5.0944)" class="st3_money-jar-71 targetColor" cx="269.2" cy="381.9" rx="25.4" ry="10.9" style="fill: rgb(104, 225, 253);"/>
	<path class="st2_money-jar-71" d="M268.3,393.5c-5.8,0.1-11.7-0.9-17.1-2.9c-5.1-2.1-8-5-8-8.2c-0.1-6.5,11.2-11.8,25.9-12.1&#10;&#9;&#9;c6.2-0.2,12.4,0.7,18.3,2.9c5.1,2.1,8,5,8,8.2c0.1,6.5-11.2,11.8-25.9,12.1L268.3,393.5z M270.2,371.7h-1.1&#10;&#9;&#9;c-13.4,0.2-24.6,5.1-24.5,10.6c0,2.6,2.6,5.1,7.1,6.9c5.7,2.1,11.7,3,17.8,2.8c13.4-0.2,24.6-5.1,24.5-10.6c0-2.6-2.6-5.1-7.1-6.9&#10;&#9;&#9;C281.5,372.5,275.9,371.5,270.2,371.7L270.2,371.7z"/>
	<path class="st1_money-jar-71" d="M287.3,380.3l-3.6,0.4c-0.2,0-0.3,0.1-0.2,0.2c0.8,0.7,1.1,1.7,1,2.7c-0.3,1-1.3,1.6-3.1,2&#10;&#9;&#9;c-0.5,0.1-1,0.2-1.5,0.3l-3.5-3c0.7,0,1.3-0.2,1.8-0.6c0.2-0.3,0.3-0.6,0.4-0.9h-0.1l-6.7,0.7c0.1,0.1,0.1,0.2,0.2,0.3&#10;&#9;&#9;c0.5,0.7,0.8,1.5,1,2.4c0.2,1.4-0.9,2.2-3.3,2.6c-2.3,0.4-4.6,0.3-6.9-0.3c-1.7-0.4-3.3-1.1-4.8-2c-0.7-0.5-1.4-1-2.1-1.5l-2.5,0.2&#10;&#9;&#9;l-1.7-2.4l2.4-0.2c-0.1-0.5-0.2-0.9-0.3-1.4c0-0.9,0.5-1.8,1.4-2.2c1.1-0.5,2.3-0.9,3.5-0.9l2,2.2c-1.7,0.3-2.6,0.9-2.3,1.8&#10;&#9;&#9;l6.6-0.7c-0.2-0.5-0.4-1-0.5-1.5c-0.2-0.5-0.1-1.1,0.2-1.5c0.6-0.6,1.4-0.9,2.2-1c1.4-0.3,2.8-0.4,4.2-0.3c2.3,0.1,4.6,0.6,6.7,1.5&#10;&#9;&#9;c0.8,0.3,1.5,0.7,2.2,1.1l0.3,0.1l3.5-0.4L287.3,380.3z M260.5,383c0.6,0.5,1.2,0.8,1.9,1.1c1.4,0.5,3.4,0.4,4-0.1s0.2-1,0.1-1.5&#10;&#9;&#9;L260.5,383z M275.9,378.8c-0.7-0.3-1.3-0.6-2-0.8c-1.6-0.5-3.6-0.4-3.9,0.3c-0.2,0.3,0,0.7,0.2,1.1L275.9,378.8z"/>
	<path class="st3_money-jar-71 targetColor" d="M286.1,276.6l-1.8,8.8c-1.5,5.8,8.4,13.3,22,16.7s25.8,1.4,27.3-4.4l1.8-8.8L286.1,276.6z" style="fill: rgb(104, 225, 253);"/>
	<path class="st2_money-jar-71" d="M319.1,304.5c-4.3,0-8.7-0.6-12.9-1.7c-14.2-3.5-24.1-11.2-22.5-17.5l1.8-8.8c0-0.2,0.2-0.3,0.3-0.5&#10;&#9;&#9;c0.2-0.1,0.4-0.1,0.5-0.1l49.3,12.3c0.4,0.1,0.6,0.5,0.5,0.8l-1.8,8.8c-0.8,3.1-4.2,5.3-9.6,6.2C322.8,304.4,321,304.5,319.1,304.5&#10;&#9;&#9;z M286.7,277.5l-1.7,8.1c-1.3,5.4,8.5,12.6,21.5,15.9c5.8,1.6,11.9,2,17.9,1.2c4.8-0.8,7.9-2.6,8.5-5.1l1.6-8.1L286.7,277.5z"/>
	
		<ellipse transform="matrix(0.2414 -0.9704 0.9704 0.2414 -38.6534 516.1522)" class="st3_money-jar-71 targetColor" cx="310.8" cy="282.8" rx="10.9" ry="25.4" style="fill: rgb(104, 225, 253);"/>
	<path class="st2_money-jar-71" d="M320.9,295.7c-4.3,0-8.7-0.6-12.9-1.7c-6.1-1.4-11.8-4-16.9-7.5c-4.4-3.3-6.4-6.9-5.6-10s4.2-5.3,9.6-6.2&#10;&#9;&#9;c12.5-1.4,25,1.8,35.4,8.8c4.4,3.3,6.4,6.9,5.6,10l0,0c-0.8,3.1-4.2,5.3-9.6,6.2C324.6,295.6,322.8,295.7,320.9,295.7z&#10;&#9;&#9; M300.7,271.3c-1.8,0-3.6,0.1-5.4,0.4c-4.8,0.8-7.9,2.7-8.5,5.1s1.2,5.6,5.1,8.5c10.1,6.8,22.2,9.8,34.3,8.5&#10;&#9;&#9;c4.8-0.8,7.9-2.6,8.5-5.1l0,0c0.6-2.5-1.2-5.6-5.1-8.5c-4.9-3.5-10.5-6-16.4-7.3C309.2,271.8,305,271.3,300.7,271.3L300.7,271.3z"/>
	<path class="st1_money-jar-71" d="M328.6,286l-3.6-0.6c-0.2,0-0.3,0-0.2,0.1c0.6,0.9,0.6,1.9,0.2,2.9c-0.5,0.9-1.7,1.2-3.5,1.1&#10;&#9;&#9;c-0.5,0-1-0.1-1.5-0.1l-2.6-3.8c0.6,0.2,1.3,0.1,1.9-0.2c0.2-0.2,0.4-0.5,0.6-0.7l-0.1-0.1l-6.7-1.1c0,0.1,0.1,0.2,0.1,0.3&#10;&#9;&#9;c0.3,0.8,0.4,1.7,0.4,2.6c-0.1,1.4-1.5,1.9-3.9,1.7c-2.3-0.2-4.5-0.9-6.6-2c-1.5-0.8-2.9-1.9-4.1-3.1c-0.6-0.7-1.1-1.4-1.6-2&#10;&#9;&#9;l-2.5-0.4l-1-2.8l2.4,0.4c0-0.5,0-0.9,0.1-1.4c0.2-0.9,1-1.6,1.9-1.8c1.2-0.2,2.4-0.2,3.6,0l1.4,2.7c-1.7-0.1-2.7,0.2-2.7,1.2&#10;&#9;&#9;l6.6,1.1c0-0.5-0.1-1-0.2-1.5c-0.1-0.6,0.1-1.1,0.6-1.4c0.7-0.4,1.6-0.5,2.4-0.4c1.4,0.1,2.8,0.3,4.2,0.8c2.2,0.7,4.2,1.8,6.1,3.2&#10;&#9;&#9;c0.7,0.5,1.2,1.1,1.9,1.7l0.2,0.2l3.5,0.6L328.6,286z M302,281.6c0.4,0.6,1,1.1,1.6,1.5c1.2,0.8,3.1,1.3,3.9,0.9s0.5-0.9,0.5-1.5&#10;&#9;&#9;L302,281.6z M318,281.5c-0.6-0.5-1.1-0.9-1.7-1.2c-1.4-0.9-3.4-1.3-3.9-0.8c-0.3,0.3-0.2,0.7-0.1,1.1L318,281.5z"/>
	<path class="st3_money-jar-71 targetColor" d="M225.4,293.2l7.6,4.7c5,3.4,15.4-3.4,23.2-15c7.8-11.6,10.1-23.8,5.2-27.2l-7.6-4.7L225.4,293.2z" style="fill: rgb(104, 225, 253);"/>
	<path class="st2_money-jar-71" d="M236.2,299.5c-1.2,0-2.4-0.3-3.4-1l-7.6-4.7c-0.3-0.2-0.4-0.6-0.2-1c0,0,0,0,0,0l28.4-42.2&#10;&#9;&#9;c0.2-0.3,0.6-0.4,0.9-0.2l7.7,4.7c5.4,3.7,3.2,16-4.9,28.2C250.2,293.2,241.9,299.5,236.2,299.5z M226.4,293l7,4.3&#10;&#9;&#9;c4.6,3.1,14.8-3.7,22.3-14.8c7.5-11.1,9.9-23.1,5.3-26.2L254,252L226.4,293z"/>
	
		<ellipse transform="matrix(0.5583 -0.8296 0.8296 0.5583 -119.934 319.0071)" class="st3_money-jar-71 targetColor" cx="239.6" cy="272.1" rx="25.4" ry="10.9" style="fill: rgb(104, 225, 253);"/>
	<path class="st2_money-jar-71" d="M228.5,294.8c-1.2,0-2.4-0.3-3.4-1c-2.7-1.8-3.6-5.8-2.5-11.2c3-12.2,10.2-22.9,20.4-30.3&#10;&#9;&#9;c4.6-3,8.6-3.7,11.3-1.9l0,0c2.7,1.8,3.6,5.8,2.5,11.2c-3,12.2-10.2,23-20.4,30.3C233.4,293.8,230.8,294.8,228.5,294.8z&#10;&#9;&#9; M250.8,250.9c-2,0-4.4,0.9-7.1,2.6c-9.8,7.1-16.8,17.5-19.8,29.4c-0.9,4.8-0.2,8.3,1.9,9.8s5.7,0.8,9.8-1.9&#10;&#9;&#9;c9.8-7.1,16.8-17.5,19.8-29.4c0.9-4.8,0.2-8.3-1.9-9.8l0,0C252.6,251.2,251.7,250.9,250.8,250.9L250.8,250.9z"/>
	<path class="st1_money-jar-71" d="M248.7,256.5c-0.6,1.1-1.2,2.1-1.8,3.1c-0.1,0.2-0.1,0.3,0.1,0.2c1-0.2,2,0.1,2.8,0.8c0.6,0.8,0.6,2-0.2,3.7&#10;&#9;&#9;c-0.2,0.5-0.4,0.9-0.7,1.4l-4.5,1.1c0.4-0.5,0.5-1.2,0.5-1.8c-0.1-0.3-0.3-0.6-0.5-0.8l-0.1,0.1l-3.3,5.9c0.1,0,0.2,0,0.4,0&#10;&#9;&#9;c0.9,0,1.8,0.2,2.6,0.5c1.2,0.6,1.3,2,0.3,4.2c-1,2.1-2.4,4-4.2,5.5c-1.3,1.2-2.7,2.1-4.4,2.8c-0.8,0.3-1.6,0.5-2.5,0.8l-1.2,2.2&#10;&#9;&#9;h-3l1.2-2.1c-0.4-0.2-0.9-0.3-1.3-0.6c-0.8-0.5-1.2-1.5-1-2.4c0.2-1.2,0.6-2.4,1.2-3.4l3-0.4c-0.7,1.5-0.8,2.6,0.2,2.9&#10;&#9;&#9;c1.1-2,2.1-3.9,3.2-5.8c-0.5-0.1-1-0.2-1.5-0.4c-0.5-0.1-1-0.5-1.1-1c-0.1-0.8,0-1.6,0.4-2.4c0.6-1.3,1.3-2.5,2.2-3.6&#10;&#9;&#9;c1.4-1.8,3.1-3.4,5.1-4.6c0.7-0.5,1.4-0.8,2.2-1.2l0.3-0.1l1.7-3.1L248.7,256.5z M235.5,280c0.7-0.2,1.4-0.5,2-1&#10;&#9;&#9;c1.2-0.9,2.3-2.5,2.2-3.3c-0.1-0.7-0.7-0.7-1.2-0.9L235.5,280z M240.9,264.9c-0.6,0.4-1.2,0.8-1.8,1.2c-1.3,1-2.3,2.7-2.1,3.4&#10;&#9;&#9;c0.2,0.4,0.6,0.4,1,0.5L240.9,264.9z"/>
	<path class="st3_money-jar-71 targetColor" d="M207,320.2l0.5,9c0.1,6,11.6,10.7,25.6,10.4s25.3-5.4,25.2-11.4l-0.5-9L207,320.2z" style="fill: rgb(104, 225, 253);"/>
	<path class="st2_money-jar-71" d="M232,340.3c-14.1,0-25-4.8-25.1-11.1l-0.5-8.9c0-0.2,0.1-0.4,0.2-0.5c0.1-0.1,0.3-0.2,0.5-0.2l50.8-1l0,0&#10;&#9;&#9;c0.4,0,0.7,0.3,0.7,0.6l0.5,9c0.1,3.2-2.7,6.2-7.7,8.5c-5.8,2.4-11.9,3.6-18.2,3.6L232,340.3z M207.7,320.9l0.5,8.2&#10;&#9;&#9;c0.1,5.5,11.5,10,24.9,9.8c6,0,12-1.2,17.6-3.5c4.4-2,6.9-4.6,6.9-7.2l-0.5-8.3L207.7,320.9z"/>
	
		<ellipse transform="matrix(0.9998 -1.867402e-02 1.867402e-02 0.9998 -5.93 4.3947)" class="st3_money-jar-71 targetColor" cx="232.3" cy="319.7" rx="25.4" ry="10.9" style="fill: rgb(104, 225, 253);"/>
	<path class="st2_money-jar-71" d="M231.4,331.3c-14.1,0-25-4.8-25.1-11.1c-0.1-6.5,11.2-11.8,25.9-12.1c6.9-0.1,13.4,0.9,18.3,2.9&#10;&#9;&#9;c5.1,2.1,8,5,8,8.2l0,0c0.1,3.2-2.7,6.2-7.7,8.5c-5.8,2.4-11.9,3.6-18.2,3.6L231.4,331.3z M233.3,309.5h-1.1&#10;&#9;&#9;c-13.4,0.2-24.6,5.1-24.5,10.6s11.5,10,24.9,9.7c6,0,12-1.2,17.6-3.5c4.4-2,6.9-4.6,6.9-7.2l0,0c0-2.6-2.6-5.1-7.1-6.9&#10;&#9;&#9;C244.6,310.4,239,309.4,233.3,309.5z"/>
	<path class="st1_money-jar-71" d="M250.4,318.2l-3.6,0.4c-0.2,0-0.3,0.1-0.2,0.2c0.8,0.7,1.1,1.7,1,2.7c-0.3,1-1.3,1.6-3.1,2&#10;&#9;&#9;c-0.5,0.1-1,0.2-1.5,0.3l-3.5-3c0.7,0,1.3-0.2,1.8-0.6c0.2-0.3,0.3-0.6,0.4-0.9h-0.1l-6.7,0.7c0.1,0.1,0.1,0.2,0.2,0.3&#10;&#9;&#9;c0.5,0.7,0.8,1.5,1,2.4c0.2,1.4-0.9,2.2-3.3,2.6c-2.3,0.4-4.6,0.3-6.9-0.3c-1.7-0.4-3.3-1.1-4.8-2c-0.7-0.5-1.4-1-2.1-1.5l-2.5,0.2&#10;&#9;&#9;l-1.7-2.4l2.4-0.2c-0.1-0.5-0.2-0.9-0.3-1.4c0-0.9,0.5-1.8,1.4-2.2c1.1-0.5,2.3-0.9,3.5-0.9l2,2.2c-1.7,0.3-2.6,0.9-2.3,1.8&#10;&#9;&#9;l6.6-0.7c-0.2-0.5-0.4-1-0.6-1.5c-0.2-0.5-0.1-1.1,0.2-1.5c0.6-0.6,1.4-0.9,2.2-1c1.4-0.3,2.8-0.4,4.2-0.3c2.3,0.1,4.6,0.6,6.7,1.5&#10;&#9;&#9;c0.8,0.3,1.5,0.7,2.2,1.1l0.3,0.1l3.5-0.4L250.4,318.2z M223.6,320.9c0.6,0.5,1.2,0.8,1.9,1.1c1.4,0.5,3.4,0.4,4-0.1s0.2-1,0.1-1.5&#10;&#9;&#9;L223.6,320.9z M239,316.6c-0.7-0.3-1.3-0.6-2-0.8c-1.6-0.5-3.6-0.4-3.9,0.3c-0.2,0.3,0,0.7,0.2,1.1L239,316.6z"/>
	<path class="st3_money-jar-71 targetColor" d="M278,131.5l5.9,6.7c3.7,4.7,15.6,1.4,26.5-7.4s16.7-19.6,13-24.3l-5.9-6.7L278,131.5z" style="fill: rgb(104, 225, 253);"/>
	<path class="st2_money-jar-71" d="M289.4,141c-2.7,0-4.8-0.8-6.1-2.4l-5.9-6.7c-0.3-0.3-0.2-0.7,0.1-1c0,0,0,0,0,0l39.5-31.6&#10;&#9;&#9;c0.3-0.3,0.7-0.2,1,0.1c0,0,0,0,0,0l5.9,6.7c2,2.5,1.7,6.6-0.9,11.4c-3.1,5.4-7.2,10.1-12.2,13.9C303.1,137.6,295.1,141,289.4,141z&#10;&#9;&#9; M279,131.6l5.4,6.2c3.5,4.3,15.1,0.9,25.6-7.4c4.8-3.7,8.8-8.2,11.8-13.4c2.3-4.3,2.7-7.8,1.1-9.8l-5.4-6.2L279,131.6z"/>
	
		<ellipse transform="matrix(0.7805 -0.6251 0.6251 0.7805 -6.9525 211.5121)" class="st3_money-jar-71 targetColor" cx="297.8" cy="115.7" rx="25.3" ry="10.8" style="fill: rgb(104, 225, 253);"/>
	<path class="st2_money-jar-71" d="M283.6,134.3c-2.7,0-4.8-0.8-6.1-2.4c-4-5.1,1.7-16.1,13.1-25.2c4.8-4,10.3-7,16.2-8.8&#10;&#9;&#9;c5.3-1.5,9.3-0.9,11.3,1.6l0,0c4,5-1.7,16.2-13.1,25.3C297.2,130.8,289.2,134.3,283.6,134.3z M312,98.4c-1.6,0-3.3,0.3-4.8,0.7&#10;&#9;&#9;c-5.7,1.8-11.1,4.7-15.7,8.6c-10.4,8.3-16.3,19-12.9,23.3c3.4,4.3,15.1,0.9,25.5-7.5s16.3-19,12.9-23.3l0,0&#10;&#9;&#9;C316,99.1,314.2,98.4,312,98.4z"/>
	<path class="st1_money-jar-71" d="M311,103.5l-2.6,2.5c-0.2,0.2-0.2,0.2,0,0.2c1,0.1,1.9,0.7,2.4,1.6c0.4,0.9-0.1,2.1-1.3,3.5&#10;&#9;&#9;c-0.3,0.4-0.7,0.7-1,1.1l-4.6-0.3c0.5-0.4,0.8-1,1-1.6c0-0.3-0.1-0.6-0.2-0.9h-0.1l-4.9,4.6l0.3,0.1c0.8,0.3,1.6,0.7,2.3,1.3&#10;&#9;&#9;c1,0.9,0.6,2.3-1,4.1c-1.6,1.7-3.5,3.1-5.6,4c-1.6,0.8-3.3,1.2-5,1.3c-0.9,0-1.7,0-2.6,0l-1.8,1.7l-2.8-0.9l1.8-1.7&#10;&#9;&#9;c-0.4-0.3-0.7-0.6-1.1-0.9c-0.6-0.7-0.7-1.7-0.2-2.6c0.5-1.1,1.3-2.1,2.2-2.9l3,0.5c-1.1,1.2-1.5,2.2-0.7,2.8l4.8-4.6&#10;&#9;&#9;c-0.5-0.3-0.9-0.5-1.3-0.8c-0.5-0.3-0.8-0.8-0.8-1.3c0.1-0.8,0.5-1.6,1.1-2.1c0.9-1.1,2-2,3.1-2.8c1.9-1.3,4-2.3,6.2-2.9&#10;&#9;&#9;c0.9-0.2,1.6-0.3,2.5-0.5h0.3l2.6-2.4L311,103.5z M291.5,121.9c0.7,0,1.5-0.1,2.2-0.3c1.4-0.5,2.9-1.7,3-2.5&#10;&#9;&#9;c0.1-0.7-0.5-0.9-0.9-1.3L291.5,121.9z M301.1,109.2c-0.7,0.2-1.4,0.3-2,0.6c-1.5,0.6-3,1.9-2.9,2.6c0,0.4,0.4,0.6,0.8,0.8&#10;&#9;&#9;L301.1,109.2z"/>
	<path class="st3_money-jar-71 targetColor" d="M227,90.1l-6.2,6.4c-4.4,4.1-0.1,15.7,9.4,25.8s20.9,15.1,25.2,11l6.3-6.4L227,90.1z" style="fill: rgb(104, 225, 253);"/>
	<path class="st2_money-jar-71" d="M251.2,135.5c-2.3-0.1-4.6-0.6-6.7-1.6c-5.6-2.7-10.6-6.4-14.8-11c-10-10.6-14.1-22.4-9.4-26.8l6.2-6.4&#10;&#9;&#9;c0.1-0.1,0.3-0.2,0.5-0.2c0.2,0,0.4,0.1,0.5,0.2l34.7,36.8c0.3,0.3,0.3,0.7,0,1l-6.2,6.4C254.7,135,253,135.6,251.2,135.5z&#10;&#9;&#9; M227,91.1l-5.7,5.9c-4,3.8,0.3,15.2,9.5,24.9c4,4.5,8.9,8.1,14.4,10.7c4.4,1.9,8,2,9.9,0.3l5.8-5.9L227,91.1z"/>
	
		<ellipse transform="matrix(0.728 -0.6856 0.6856 0.728 -7.9522 197.0429)" class="st3_money-jar-71 targetColor" cx="244.4" cy="108.5" rx="10.8" ry="25.3" style="fill: rgb(104, 225, 253);"/>
	<path class="st2_money-jar-71" d="M257.5,129.1c-5.7,0-14-4.7-21.5-12.7c-10-10.6-14.1-22.4-9.4-26.8c2.3-2.2,6.4-2.2,11.4,0&#10;&#9;&#9;c11.2,5.6,20,15,24.9,26.4c1.9,5.2,1.6,9.2-0.7,11.4C260.9,128.6,259.2,129.2,257.5,129.1z M231.2,89.4c-1.4-0.1-2.7,0.4-3.7,1.2&#10;&#9;&#9;c-4,3.8,0.3,15.2,9.5,24.8s20.2,14.7,24.2,11c1.9-1.8,2-5.4,0.3-9.9c-4.8-11.1-13.3-20.2-24.1-25.7C235.4,90,233.4,89.5,231.2,89.4&#10;&#9;&#9;z"/>
	<path class="st1_money-jar-71" d="M257.5,120.8l-2.7-2.4c-0.2-0.2-0.2-0.2-0.2,0c0,1-0.5,2-1.4,2.5c-0.9,0.4-2.1,0.1-3.6-1&#10;&#9;&#9;c-0.4-0.3-0.8-0.6-1.2-0.9l-0.1-4.6c0.4,0.5,1,0.8,1.7,0.9c0.3-0.1,0.6-0.2,0.9-0.3l-0.1-0.1l-5-4.5l-0.1,0.3&#10;&#9;&#9;c-0.2,0.9-0.6,1.7-1.1,2.4c-0.9,1.1-2.3,0.8-4.1-0.7c-1.8-1.4-3.3-3.2-4.4-5.2c-0.9-1.5-1.5-3.1-1.7-4.8c-0.1-0.9-0.2-1.7-0.2-2.6&#10;&#9;&#9;l-1.8-1.7l0.7-2.9l1.8,1.6c0.3-0.4,0.5-0.8,0.8-1.1c0.7-0.7,1.7-0.8,2.5-0.4c1.1,0.4,2.1,1.1,3,1.9l-0.3,3c-1.3-1-2.4-1.3-2.9-0.4&#10;&#9;&#9;l5,4.4c0.2-0.5,0.4-0.9,0.7-1.4c0.2-0.5,0.7-0.9,1.3-0.9c0.8,0.1,1.6,0.4,2.2,0.9c1.1,0.8,2.2,1.8,3.1,2.9c1.5,1.8,2.6,3.8,3.4,5.9&#10;&#9;&#9;c0.3,0.8,0.4,1.6,0.7,2.4c0,0.1,0,0.2,0.1,0.3l2.6,2.4L257.5,120.8z M237.6,102.8c0,0.7,0.2,1.5,0.5,2.1c0.6,1.4,1.9,2.8,2.8,2.8&#10;&#9;&#9;c0.7,0.1,0.9-0.5,1.2-1L237.6,102.8z M251.1,111.4c-0.3-0.7-0.5-1.3-0.8-2c-0.7-1.5-2.1-2.9-2.8-2.7c-0.4,0.1-0.5,0.5-0.7,0.9&#10;&#9;&#9;L251.1,111.4z"/>
	<path class="st3_money-jar-71 targetColor" d="M305.4,354.8c-5,8.3,0.6,26.7,0.6,26.7l7.4,5.4c10.9,6.9,25.4,3.6,32.2-7.4c6.9-10.9,3.6-25.4-7.4-32.2&#10;&#9;&#9;c-0.2-0.2-0.5-0.3-0.8-0.5l-8.2-4C329.2,342.8,310.3,346.5,305.4,354.8z" style="fill: rgb(104, 225, 253);"/>
	<path class="st2_money-jar-71" d="M325.3,390.9c-4.3,0-8.6-1.2-12.3-3.4l-7.4-5.4c-0.1-0.1-0.2-0.2-0.3-0.4c-0.2-0.8-5.6-18.8-0.5-27.3l0,0&#10;&#9;&#9;c5.1-8.5,23.5-12.2,24.3-12.3c0.1,0,0.3,0,0.4,0.1l8.2,4c11.4,6.8,15.1,21.6,8.3,33C341.7,386.5,333.9,390.9,325.3,390.9&#10;&#9;&#9;L325.3,390.9z M306.6,381.1l7.2,5.2c10.7,6.4,24.7,2.9,31.1-7.8s2.9-24.7-7.8-31.1l0,0l-7.9-3.9c-2.1,0.5-18.7,4.2-23.1,11.6l0,0&#10;&#9;&#9;C301.5,362.6,306,379,306.6,381.1z"/>
	<circle class="st3_money-jar-71 targetColor" cx="320.3" cy="363.8" r="23.4" style="fill: rgb(104, 225, 253);"/>
	<path class="st2_money-jar-71" d="M320.3,387.8c-13.3,0-24.1-10.8-24-24.1s10.8-24.1,24.1-24c4.4,0,8.7,1.2,12.4,3.4l0,0&#10;&#9;&#9;c11.4,6.8,15.1,21.6,8.2,33C336.6,383.4,328.7,387.9,320.3,387.8z M320.3,341.1c-12.5,0-22.7,10.1-22.7,22.7&#10;&#9;&#9;c0,12.5,10.1,22.7,22.7,22.7c12.5,0,22.7-10.1,22.7-22.7c0-8-4.2-15.3-11-19.4C328.5,342.2,324.4,341.1,320.3,341.1z"/>
	<path class="st1_money-jar-71" d="M307.2,353.1l2.9,1.8c0.2,0.1,0.3,0.1,0.4-0.1c1.1-1.3,2.6-2.2,4.2-2.8c1.7-0.6,3.5-0.6,5.2,0.1&#10;&#9;&#9;c0.5,0.2,0.9,0.4,1.4,0.6l-2.7,4.5c-0.7-0.4-1.5-0.6-2.3-0.5c-0.6,0.2-1.2,0.3-1.8,0.6v0.1l5.6,3.4c0.1-0.1,0.3-0.3,0.4-0.4&#10;&#9;&#9;c1-1.1,2.1-2,3.3-2.9c1.8-1.3,4.1-1.5,6.1-0.5c1.9,0.8,3.4,2.3,4.2,4.1c0.7,1.5,0.8,3.2,0.5,4.8c-0.2,1-0.5,2-0.8,3l2.2,1.3&#10;&#9;&#9;l-2.5,4.1l-2.3-1.4c-0.7,0.7-1.4,1.4-2.1,2c-1.4,1.2-3.2,1.9-5,2c-1.6,0-3.1-0.4-4.5-1.2l2.7-4.4c1.6,0.9,3.6,0.6,4.9-0.7l-6-3.6&#10;&#9;&#9;c-0.8,0.7-1.5,1.4-2.2,2.1c-0.9,0.8-2,1.5-3.1,1.8c-1.2,0.3-2.5,0.2-3.6-0.2c-1.4-0.5-2.7-1.4-3.7-2.6c-1.4-1.7-2-4-1.5-6.2&#10;&#9;&#9;c0.2-0.9,0.5-1.7,0.8-2.6c0-0.1,0.1-0.2,0.1-0.3l-3-1.8L307.2,353.1z M329.7,366.6c0.3-0.7,0.4-1.6,0.3-2.4&#10;&#9;&#9;c-0.3-1.4-1.5-2.4-2.9-2.3c-1,0.3-1.9,0.8-2.5,1.5L329.7,366.6z M311.6,361.4c-0.1,0.7-0.1,1.4-0.1,2.1c0.1,1.4,1.4,2.5,2.8,2.4&#10;&#9;&#9;c0.1,0,0.3,0,0.4-0.1c0.7-0.3,1.4-0.8,1.9-1.4L311.6,361.4z"/>
	<path class="st3_money-jar-71 targetColor" d="M223.4,350c-9.5-1.9-25,9.4-25,9.4l-2.6,8.8c-2.6,12.6,5.6,25,18.2,27.6c12.6,2.6,25-5.6,27.6-18.2l1-9.1&#10;&#9;&#9;C242.6,368.5,232.9,352,223.4,350z" style="fill: rgb(104, 225, 253);"/>
	<path class="st2_money-jar-71" d="M218.8,397c-1.6,0-3.3-0.2-4.9-0.5c-13-2.6-21.4-15.3-18.8-28.3c0,0,0-0.1,0-0.1l2.6-8.8&#10;&#9;&#9;c0-0.1,0.1-0.3,0.2-0.4c0.6-0.5,15.9-11.5,25.5-9.6l0,0c9.7,2,19.3,18.1,19.7,18.8c0.1,0.1,0.1,0.3,0.1,0.4l-1,9.1&#10;&#9;&#9;C240.1,388.9,230.2,397,218.8,397z M199,359.9l-2.5,8.5c-2.5,12.3,5.4,24.2,17.7,26.7c12.3,2.5,24.2-5.4,26.7-17.7l1-8.8&#10;&#9;&#9;c-1.1-1.9-10.1-16.2-18.7-18l0,0C214.8,349,200.8,358.6,199,359.9z"/>
	<circle class="st3_money-jar-71 targetColor" cx="219.9" cy="367.1" r="23.4" style="fill: rgb(104, 225, 253);"/>
	<path class="st2_money-jar-71" d="M220,391.2c-1.6,0-3.3-0.2-4.9-0.5c-13-2.7-21.4-15.4-18.8-28.4c2.7-13,15.4-21.4,28.4-18.8&#10;&#9;&#9;c13,2.7,21.4,15.4,18.8,28.4c0,0,0,0,0,0l0,0C241.2,383.1,231.4,391.1,220,391.2z M219.9,344.4c-12.5,0-22.7,10.2-22.6,22.7&#10;&#9;&#9;c0,12.5,10.2,22.7,22.7,22.6c10.8,0,20-7.6,22.2-18.1l0.7,0.1l-0.7-0.1c2.5-12.3-5.4-24.2-17.6-26.8&#10;&#9;&#9;C223,344.6,221.4,344.4,219.9,344.4L219.9,344.4z"/>
	<path class="st1_money-jar-71" d="M225.6,351.2c-0.2,1.1-0.4,2.2-0.7,3.3c0,0.2,0,0.3,0.2,0.4c1.6,0.7,2.9,1.7,4,3c1.1,1.4,1.7,3.1,1.6,4.9&#10;&#9;&#9;c0,0.5-0.1,1-0.1,1.5l-5.1-1.1c0.1-0.8,0-1.6-0.3-2.3c-0.3-0.5-0.7-1-1.1-1.5l-0.1,0l-1.3,6.4l0.5,0.2c1.3,0.6,2.6,1.3,3.8,2.1&#10;&#9;&#9;c1.8,1.3,2.8,3.4,2.5,5.6c-0.1,2-1,3.9-2.5,5.3c-1.2,1.1-2.8,1.8-4.4,2c-1,0.1-2.1,0.1-3.1,0.2l-0.5,2.5l-4.7-1l0.5-2.6&#10;&#9;&#9;c-0.9-0.5-1.8-0.8-2.6-1.3c-1.6-0.9-2.9-2.3-3.6-4c-0.6-1.5-0.7-3.1-0.3-4.6l5.1,1c-0.3,1.8,0.7,3.6,2.3,4.4&#10;&#9;&#9;c0.5-2.3,0.9-4.6,1.4-6.9c-0.9-0.5-1.8-0.9-2.7-1.4c-1.1-0.6-2-1.4-2.7-2.4c-0.7-1-1-2.3-1-3.5c0-1.5,0.4-3,1.2-4.4&#10;&#9;&#9;c1.2-1.9,3.1-3.2,5.4-3.5c0.9-0.1,1.8-0.1,2.7-0.1h0.3l0.7-3.5L225.6,351.2z M220.4,376.9c0.8,0.1,1.6-0.1,2.3-0.5&#10;&#9;&#9;c1.2-0.7,1.7-2.2,1.2-3.5c-0.6-0.8-1.4-1.5-2.3-1.9L220.4,376.9z M219.3,358.1c-0.7,0.1-1.3,0.3-2,0.5c-1.3,0.6-1.9,2.1-1.3,3.4&#10;&#9;&#9;c0.1,0.1,0.1,0.3,0.2,0.4c0.5,0.6,1.2,1.1,1.9,1.4L219.3,358.1z"/>
	<path class="st3_money-jar-71 targetColor" d="M292.2,177.6c-2.4-6.8-6.8-16.3-12.9-19.5c-9.8-5.2-30.7,2.2-30.7,2.2l-5.7,8.8c-1.4,2.6-2.4,5.5-2.8,8.5&#10;&#9;&#9;H292.2z" style="fill: rgb(104, 225, 253);"/>
	<path class="st2_money-jar-71" d="M292.2,178.3h-52.2c-0.2,0-0.4-0.1-0.5-0.2c-0.1-0.2-0.2-0.4-0.2-0.6c0.5-3,1.5-6,2.9-8.7l5.8-8.9&#10;&#9;&#9;c0.1-0.1,0.2-0.2,0.4-0.3c0.9-0.3,21.3-7.5,31.2-2.2c6.2,3.3,10.6,12.7,13.2,19.9c0.1,0.2,0.1,0.5-0.1,0.6&#10;&#9;&#9;C292.7,178.2,292.5,178.3,292.2,178.3z M240.9,176.9h50.3c-2.6-6.9-6.7-15.2-12.2-18.2c-8.9-4.8-27.7,1.4-29.9,2.2l-5.6,8.6&#10;&#9;&#9;C242.3,171.8,241.4,174.3,240.9,176.9z"/>
	<path class="st3_money-jar-71 targetColor" d="M296.7,177.6c1-14.8-10.2-27.6-25-28.6c-14.8-1-27.6,10.2-28.6,25c-0.1,1.2-0.1,2.4,0,3.6H296.7z" style="fill: rgb(104, 225, 253);"/>
	<path class="st2_money-jar-71" d="M296.7,178.3H243c-0.4,0-0.7-0.3-0.7-0.6c-1-15.2,10.4-28.4,25.6-29.4c15.2-1,28.4,10.4,29.4,25.6&#10;&#9;&#9;c0.1,1.3,0.1,2.5,0,3.8C297.3,178,297.1,178.3,296.7,178.3z M243.7,176.9H296c0.6-14.5-10.6-26.7-25-27.3s-26.7,10.6-27.3,25&#10;&#9;&#9;C243.6,175.4,243.6,176.1,243.7,176.9L243.7,176.9z"/>
	<path class="st1_money-jar-71" d="M263.5,174.4c0.8,0.8,1.7,1.6,2.5,2.5c-0.1,0.2-0.2,0.4-0.4,0.7h10c-0.6-0.6-1.3-1.2-1.9-1.8l-0.5-0.4l3.6-6.7&#10;&#9;&#9;h0.1c0.3,0.7,0.6,1.3,0.8,2c0.2,0.9,0,1.8-0.4,2.6l5.3,2.9c0.2-0.6,0.4-1.1,0.6-1.6c0.7-2,0.6-4.1-0.2-6c-0.8-1.8-1.9-3.4-3.5-4.6&#10;&#9;&#9;c-0.2-0.2-0.2-0.3-0.1-0.5c0.6-1.1,1.2-2.3,1.9-3.4l-4.9-2.6l-1.9,3.6c-0.1,0-0.2-0.1-0.4-0.1c-1-0.3-2-0.6-3-0.7&#10;&#9;&#9;c-2.6-0.4-5.1,0.4-7.1,2.1c-1.3,1.2-2.3,2.7-2.8,4.4c-0.5,1.4-0.5,2.8-0.1,4.2C261.8,172.2,262.5,173.5,263.5,174.4z M269.7,165.6&#10;&#9;&#9;c0.8-0.1,1.6-0.1,2.4,0l-3.2,6c-0.7-0.6-1.3-1.3-1.7-2.2c-0.5-1.6,0.4-3.3,2-3.7C269.4,165.6,269.6,165.6,269.7,165.6z"/>
	<path class="st2_money-jar-71" d="M304.7,178.3h-70.3c-0.4,0-0.7-0.3-0.7-0.7c0-0.4,0.3-0.7,0.7-0.7c0,0,0,0,0,0h70.3c0.4,0,0.7,0.3,0.7,0.7&#10;&#9;&#9;S305.1,178.3,304.7,178.3C304.7,178.3,304.7,178.3,304.7,178.3z"/>
</g>
</svg>